<svg width="400" height="300" viewBox="0 0 400 300" fill="none" xmlns="http://www.w3.org/2000/svg">
  <!-- Background blob -->
  <path d="M366.5 174C388.5 214 329.5 281 200 281C70.5 281 18.5 220 25.5 174C32.5 128 89.5 45 200 45C310.5 45 344.5 134 366.5 174Z" fill="#DDEBFF"/>
  
  <!-- AC Unit Body -->
  <rect x="50" y="100" width="300" height="100" rx="12" fill="white" stroke="#E5E7EB" stroke-width="2"/>
  
  <!-- Vents -->
  <rect x="70" y="160" width="260" height="20" rx="4" fill="#F3F4F6"/>
  
  <!-- Display Panel -->
  <rect x="280" y="120" width="40" height="20" rx="4" fill="#1F2937"/>
  <text x="288" y="135" fill="#10B981" font-family="sans-serif" font-size="12" font-weight="bold">22°C</text>
  
  <!-- Cool Air Flow (Decorative) -->
  <path d="M90 190C90 190 80 230 110 240" stroke="#60A5FA" stroke-width="3" stroke-linecap="round" stroke-opacity="0.6"/>
  <path d="M140 190C140 190 130 240 160 250" stroke="#60A5FA" stroke-width="3" stroke-linecap="round" stroke-opacity="0.6"/>
  <path d="M190 190C190 190 180 230 210 240" stroke="#60A5FA" stroke-width="3" stroke-linecap="round" stroke-opacity="0.6"/>
  
  <!-- Logo hint -->
  <circle cx="290" cy="110" r="2" fill="#E5E7EB"/>
  <circle cx="280" cy="110" r="2" fill="#E5E7EB"/>
</svg>
