<svg width="500" height="400" viewBox="0 0 500 400" fill="none" xmlns="http://www.w3.org/2000/svg">
  <!-- Abstract clean representation of comfort/airflow -->
  
  <!-- Background Blob -->
  <path d="M420 200C420 310.457 330.457 400 220 400C109.543 400 20 310.457 20 200C20 89.543 109.543 0 220 0C330.457 0 420 89.543 420 200Z" fill="#EAF2FF"/>
  
  <!-- Stylized AC Unit -->
  <rect x="80" y="120" width="340" height="120" rx="16" fill="white" filter="drop-shadow(0 20px 40px rgba(11, 58, 174, 0.1))"/>
  
  <!-- Air Vents -->
  <rect x="100" y="200" width="300" height="20" rx="4" fill="#F1F5F9"/>
  
  <!-- Status Light -->
  <circle cx="380" cy="150" r="3" fill="#10B981"/>
  <text x="340" y="155" font-family="Inter, sans-serif" font-size="14" font-weight="600" fill="#94A3B8">21°C</text>

  <!-- Flow Lines (Wind/Comfort) -->
  <path d="M120 260C120 260 140 300 200 300" stroke="#3BA4F6" stroke-width="4" stroke-linecap="round"/>
  <path d="M180 260C180 260 200 310 270 310" stroke="#3BA4F6" stroke-width="4" stroke-linecap="round" stroke-opacity="0.6"/>
  <path d="M240 260C240 260 260 290 310 290" stroke="#3BA4F6" stroke-width="4" stroke-linecap="round" stroke-opacity="0.3"/>
</svg>

