<svg xmlns="http://www.w3.org/2000/svg" viewBox="0 0 32 32" fill="none">
  <path d="M16 2.003C8.283 2.003 2 8.286 2 16.003c0 2.476.643 4.9 1.867 7.037L2.1 29.283l6.45-1.688A13.91 13.91 0 0 0 16 30.003c7.717 0 14-6.283 14-14s-6.283-14-14-14z" fill="#FFF"/>
  <path d="M26.49 5.513A13.882 13.882 0 0 0 16 3.125c-7.1 0-12.875 5.775-12.875 12.875a12.83 12.83 0 0 0 2.067 6.848l-1.378 5.035 5.155-1.352a12.809 12.809 0 0 0 6.64 2.195H16c7.098 0 12.875-5.777 12.875-12.875 0-3.44-1.338-6.674-3.77-9.108z" fill="#25D366"/>
  <path d="M21.575 18.232c-.305-.152-1.808-.89-2.088-.992-.28-.102-.483-.152-.686.152-.203.305-.788.992-.966 1.196-.178.203-.356.229-.66.076-.305-.152-1.288-.474-2.454-1.513-.91-.813-1.524-1.817-1.702-2.122-.178-.305-.02-.47.133-.622.14-.14.305-.356.457-.534.152-.178.203-.305.305-.508.102-.204.05-.382-.025-.534-.076-.152-.686-1.652-.94-2.261-.247-.594-.497-.513-.686-.522l-.584-.01c-.203 0-.533.076-.813.382-.28.305-1.067 1.042-1.067 2.541s1.092 2.948 1.245 3.151c.152.203 2.149 3.279 5.206 4.6 2.09.902 2.91.97 3.967.813 1.168-.174 1.808-.737 2.062-1.448.254-.712.254-1.322.178-1.449-.076-.127-.28-.203-.585-.356z" fill="#FFF"/>
</svg>
